<svg height="511pt" viewBox="0 -1 511.9999 511" width="511pt" xmlns="http://www.w3.org/2000/svg"><path d="m417.171875 207.832031h-402.953125c0-56.007812 20.792969-108.726562 58.554688-148.445312.792968-.835938 1.59375-1.664063 2.398437-2.484375 47.808594-48.675782 118.390625-67.300782 184.429687-50.160156 50.1875 13.023437 86.082032 29.664062 120.195313 24.445312 19.851563-3.039062 38.574219 10.164062 41.882813 29.972656 5.957031 35.664063 14.933593 89.535156-4.507813 146.671875zm0 0" fill="#c86d5c"/><path d="m116.378906 56.90625c31.160156-31.726562 71.996094-50.675781 114.9375-55.289062-57.3125-6.105469-115.113281 13.511718-156.144531 55.289062-.804687.816406-1.605469 1.644531-2.398437 2.480469-37.757813 39.71875-58.554688 92.441406-58.554688 148.449219h41.207031c0-56.007813 20.796875-108.730469 58.554688-148.449219.792969-.835938 1.59375-1.664063 2.398437-2.480469zm0 0" fill="#ad4f3d"/><path d="m0 230.875c0 22.621094 18.339844 40.964844 40.964844 40.964844 22.621094 0 20.359375-18.339844 20.359375-40.964844s2.117187-40.960938-20.503907-40.960938c-22.625 0-40.820312 18.335938-40.820312 40.960938zm0 0" fill="#e3b098"/><path d="m431.390625 230.875c0 22.621094-18.339844 40.964844-40.964844 40.964844-22.621093 0-40.960937-18.339844-40.960937-40.964844s18.484375-40.960938 41.105468-40.960938c22.625 0 40.820313 18.335938 40.820313 40.960938zm0 0" fill="#e3b098"/><path d="m129.820312 369.085938s-55.253906 41.640624-55.253906 117.167968h282.257813c0-75.527344-55.253907-117.167968-55.253907-117.167968zm0 0" fill="#6ee3ff"/><path d="m160.726562 369.085938h-30.90625s-55.253906 41.640624-55.253906 117.164062h30.90625c0-75.523438 55.253906-117.164062 55.253906-117.164062zm0 0" fill="#42c3e2"/><path d="m267.21875 378.246094c0 28.453125-23.066406 51.523437-51.523438 51.523437-28.457031 0-51.523437-23.070312-51.523437-51.523437 0-28.457032 23.066406-51.523438 51.523437-51.523438 28.457032 0 51.523438 23.066406 51.523438 51.523438zm0 0" fill="#e3b098"/><path d="m388.71875 183.109375c-12.644531-39.363281-54.507812-61.308594-94.511719-50.859375-16.226562 4.238281-39.824219 8.230469-72.585937 9.125-70.226563 1.914062-125.121094-29.394531-170.539063 32.605469-7.148437 9.761719-11.066406 21.570312-11.078125 33.671875v.179687c0 102.070313 78.660156 184.8125 175.691406 184.8125s175.691407-82.742187 175.691407-184.8125c0-6.066406-.285157-12.058593-.828125-17.976562-.523438-2.3125-1.136719-4.5625-1.839844-6.746094zm0 0" fill="#fbc4ac"/><path d="m70.910156 207.832031c0-.058593 0-.121093 0-.179687.007813-12.101563 3.925782-23.910156 11.078125-33.671875 19.097657-26.074219 39.878907-35.640625 62.765625-38.121094-35.515625-2.710937-66.3125.777344-93.671875 38.121094-7.148437 9.761719-11.066406 21.570312-11.078125 33.671875v.179687c0 102.070313 78.660156 184.8125 175.691406 184.8125 5.207032 0 10.359376-.25 15.453126-.71875-89.792969-8.234375-160.238282-87.5-160.238282-184.09375zm0 0" fill="#e3b098"/><path d="m454.304688 453.234375c-4.507813 11.34375-11.273438 21.535156-19.761719 30.023437-16.046875 16.050782-38.222657 25.984376-62.71875 25.984376-37.449219 0-69.464844-23.199219-82.480469-56.007813l44.316406-134.785156c11.5625-5.527344 24.496094-8.613281 38.164063-8.613281 13.664062 0 26.597656 3.085937 38.160156 8.613281zm0 0" fill="#efedee"/><path d="m510.59375 418.699219c-3.777344-8.246094-7.957031-23.308594-7.957031-49.613281 0-48.015626-30.941407-60.28125-71.601563-36.582032l27.484375 106.828125c21.359375 8.300781 36.46875 4.390625 45.910157-1.046875 6.824218-3.929687 9.445312-12.425781 6.164062-19.585937zm0 0" fill="#ad4f3d"/><path d="m233.050781 418.699219c3.78125-8.246094 7.960938-23.308594 7.960938-49.613281 0-48.015626 30.941406-60.28125 71.601562-36.582032l-27.488281 106.828125c-21.355469 8.300781-36.46875 4.390625-45.90625-1.046875-6.824219-3.929687-9.445312-12.425781-6.167969-19.585937zm0 0" fill="#ad4f3d"/><path d="m460.523438 398.539062v22c0 11.539063-2.207032 22.578126-6.21875 32.695313-18.65625-1.835937-38.335938-9.074219-50.15625-24.277344-19.441407-25.003906-13.285157-66.082031-3.21875-93.621093 2.125-5.808594 4.828124-12.140626 9.054687-16.886719 29.882813 14.253906 50.539063 44.765625 50.539063 80.089843zm0 0" fill="#c86d5c"/><path d="m283.121094 398.539062v22c0 11.539063 2.210937 22.578126 6.222656 32.695313 18.65625-1.835937 38.335938-9.074219 50.15625-24.277344 19.441406-25.003906 13.285156-66.082031 3.21875-93.621093-2.125-5.808594-4.828125-12.140626-9.054688-16.886719-29.882812 14.253906-50.542968 44.765625-50.542968 80.089843zm0 0" fill="#c86d5c"/><path d="m305.136719 237.394531c4.269531 0 7.726562-3.457031 7.726562-7.726562v-17.390625c0-4.265625-3.457031-7.726563-7.726562-7.726563-4.265625 0-7.726563 3.460938-7.726563 7.726563v17.390625c0 4.269531 3.460938 7.726562 7.726563 7.726562zm0 0" fill="#3a484a"/><path d="m316.980469 247.503906h-23.6875c-4.265625 0-7.726563 3.460938-7.726563 7.726563 0 4.269531 3.460938 7.726562 7.726563 7.726562h23.6875c4.269531 0 7.726562-3.457031 7.726562-7.726562 0-4.265625-3.457031-7.726563-7.726562-7.726563zm0 0" fill="#f98084"/><path d="m126.25 237.394531c4.269531 0 7.726562-3.457031 7.726562-7.726562v-17.390625c0-4.265625-3.457031-7.726563-7.726562-7.726563-4.265625 0-7.726562 3.460938-7.726562 7.726563v17.390625c0 4.269531 3.460937 7.726562 7.726562 7.726562zm0 0" fill="#3a484a"/><path d="m138.09375 247.503906h-23.6875c-4.265625 0-7.726562 3.460938-7.726562 7.726563 0 4.269531 3.460937 7.726562 7.726562 7.726562h23.6875c4.269531 0 7.726562-3.457031 7.726562-7.726562 0-4.265625-3.457031-7.726563-7.726562-7.726563zm0 0" fill="#f98084"/><g fill="#3a484a"><path d="m236.777344 241.355469c-3.214844-2.808594-8.09375-2.480469-10.902344.730469-2.464844 2.820312-6.175781 4.4375-10.179688 4.4375-4.007812 0-7.71875-1.617188-10.179687-4.4375-2.808594-3.210938-7.691406-3.542969-10.902344-.734376-3.214843 2.808594-3.542969 7.691407-.734375 10.902344 5.398438 6.179688 13.351563 9.722656 21.816406 9.722656 8.464844 0 16.414063-3.542968 21.8125-9.722656 2.808594-3.210937 2.480469-8.09375-.730468-10.898437zm0 0"/><path d="m398.914062 443.570312c-3.210937-2.808593-8.09375-2.480468-10.902343.734376-1.238281 1.414062-3.125 2.226562-5.183594 2.226562-2.0625 0-3.949219-.8125-5.1875-2.226562-1.371094-1.570313-3.371094-2.53125-5.449219-2.628907-2.320312-.109375-4.65625.878907-6.1875 2.628907-1.234375 1.414062-3.125 2.226562-5.183594 2.226562-2.058593 0-3.949218-.8125-5.1875-2.226562-2.808593-3.214844-7.6875-3.542969-10.902343-.734376-3.210938 2.808594-3.539063 7.691407-.730469 10.902344 4.171875 4.773438 10.300781 7.511719 16.820312 7.511719 3.921876 0 7.703126-1 11.003907-2.832031 3.296875 1.832031 7.078125 2.832031 11.003906 2.832031 6.515625 0 12.648437-2.738281 16.820313-7.511719 2.808593-3.210937 2.480468-8.09375-.734376-10.902344zm0 0"/><path d="m381.757812 426.53125h-19.867187c-3.945313 0-5.050781 5.40625-1.425781 6.96875 3.453125 1.488281 7.300781 2.316406 11.359375 2.316406 4.058593 0 7.90625-.828125 11.359375-2.316406 3.625-1.5625 2.519531-6.96875-1.425782-6.96875zm0 0"/><path d="m314.515625 426.71875c-4.269531 0-7.726563-3.460938-7.726563-7.726562v-10.183594c0-4.269532 3.457032-7.726563 7.726563-7.726563 4.265625 0 7.726563 3.457031 7.726563 7.726563v10.183594c0 4.265624-3.460938 7.726562-7.726563 7.726562zm0 0"/><path d="m429.132812 426.71875c-4.265624 0-7.726562-3.460938-7.726562-7.726562v-10.183594c0-4.269532 3.460938-7.726563 7.726562-7.726563 4.265626 0 7.726563 3.457031 7.726563 7.726563v10.183594c0 4.265624-3.460937 7.726562-7.726563 7.726562zm0 0"/></g></svg>