<svg height="512" viewBox="0 0 64 64" width="512" xmlns="http://www.w3.org/2000/svg"><path d="m13 14h46a2 2 0 0 1 2 2v10a0 0 0 0 1 0 0h-48a0 0 0 0 1 0 0v-12a0 0 0 0 1 0 0z" fill="#898890"/><path d="m61 26v22a2.006 2.006 0 0 1 -2 2h-46v-24z" fill="#acabb1"/><path d="m17 17h6v5h-6z" fill="#ffda44"/><path d="m54 32a14 14 0 1 1 -1.35-6 14 14 0 0 1 1.35 6z" fill="#57565c"/><circle cx="40" cy="32" fill="#bdfdff" r="10"/><path d="m17 11v3h-8v-3a2.006 2.006 0 0 1 2-2h4a2.006 2.006 0 0 1 2 2z" fill="#e0e0e2"/><path d="m13 14v36h-8a2.006 2.006 0 0 1 -2-2v-32a2.006 2.006 0 0 1 2-2z" fill="#57565c"/><circle cx="37" cy="29" fill="#fff" r="3"/></svg>