<svg height="512pt" viewBox="0 0 512 512" width="512pt" xmlns="http://www.w3.org/2000/svg"><path d="m512 256c0 141.386719-114.613281 256-256 256s-256-114.613281-256-256 114.613281-256 256-256 256 114.613281 256 256zm0 0" fill="#555a66"/><path d="m512 256c0-3.832031-.101562-7.640625-.265625-11.429688l-93.417969-93.417968-246.433594-10.128906 7.355469 274.476562 95.796875 95.796875c132.496094-9.742187 236.964844-120.316406 236.964844-255.296875zm0 0" fill="#333940"/><path d="m171.117188 72.152344h169.765624l77.433594 79h-324.632812zm0 0" fill="#f92814"/><path d="m340.882812 72.152344h-85.074218v79h162.507812zm0 0" fill="#db0404"/><path d="m304.910156 364h-99.933594l-111.292968-212.847656 77.433594-79zm0 0" fill="#ff6c52"/><path d="m207.089844 364h99.933594l111.292968-212.847656-77.433594-79zm0 0" fill="#db0404"/><path d="m366 345.5c0 58.816406-47.683594 106.5-106.5 106.5s-106.5-47.683594-106.5-106.5 47.683594-106.5 106.5-106.5 106.5 47.683594 106.5 106.5zm0 0" fill="#fff"/><path d="m259.5 239c-1.234375 0-2.464844.027344-3.691406.070312v212.859376c1.226562.042968 2.457031.070312 3.691406.070312 58.816406 0 106.5-47.679688 106.5-106.5 0-58.816406-47.683594-106.5-106.5-106.5zm0 0" fill="#dce1eb"/><path d="m329.5 345.5c0 38.660156-31.339844 70-70 70s-70-31.339844-70-70 31.339844-70 70-70 70 31.339844 70 70zm0 0" fill="#dce1eb"/><path d="m259.5 275.5c-1.238281 0-2.46875.035156-3.691406.097656v139.804688c1.222656.0625 2.453125.097656 3.691406.097656 38.660156 0 70-31.339844 70-70s-31.339844-70-70-70zm0 0" fill="#bec3d2"/></svg>