<svg xmlns="http://www.w3.org/2000/svg">
<!--Corazón a color-->
    <symbol id="heart-color" viewBox="0 0 513.292 513.292">
        <path d="m256.646 492.13c-3.093 0-6.186-.954-8.815-2.863-2.516-1.827-62.289-45.433-122.952-106.235-83.249-83.442-125.264-155.824-124.876-215.136.256-39.07 14.711-75.792 40.704-103.402 26.306-27.942 61.371-43.331 98.735-43.331 48.017 0 91.942 26.124 117.204 67.491 25.262-41.367 69.188-67.491 117.204-67.491 36.18 0 70.499 14.489 96.636 40.798 27.866 28.049 43.066 65.74 42.803 106.132-.388 59.225-42.615 131.535-125.51 214.92-60.438 60.795-119.78 104.397-122.276 106.224-2.637 1.928-5.747 2.893-8.857 2.893z" fill="#fa676d"/>
        <path d="m470.486 61.96c-26.137-26.309-60.456-40.798-96.636-40.798-48.017 0-91.942 26.124-117.204 67.491v403.477c3.109 0 6.22-.965 8.856-2.894 2.496-1.827 61.839-45.428 122.276-106.224 82.895-83.386 125.122-155.695 125.51-214.92.265-40.391-14.936-78.083-42.802-106.132z" fill="#f92f3e"/>
        <path d="m438.292 182.601c-.034 0-.066 0-.101-.001-8.284-.054-14.955-6.814-14.901-15.098.106-16.241-5.807-31.197-16.65-42.112-9.117-9.176-20.762-14.229-32.789-14.229-8.284 0-15-6.716-15-15s6.716-15 15-15c20.078 0 39.28 8.199 54.07 23.085 16.519 16.626 25.528 39.16 25.369 63.452-.055 8.252-6.76 14.903-14.998 14.903z" fill="#fff"/>
    </symbol>
<!--Corazón SIN color-->
    <symbol id="heart" viewBox="0 0 513.292 513.292">
        <path d="m256.646 492.13c-3.093 0-6.186-.954-8.815-2.863-2.516-1.827-62.289-45.433-122.952-106.235-83.249-83.442-125.264-155.824-124.876-215.136.256-39.07 14.711-75.792 40.704-103.402 26.306-27.942 61.371-43.331 98.735-43.331 48.017 0 91.942 26.124 117.204 67.491 25.262-41.367 69.188-67.491 117.204-67.491 36.18 0 70.499 14.489 96.636 40.798 27.866 28.049 43.066 65.74 42.803 106.132-.388 59.225-42.615 131.535-125.51 214.92-60.438 60.795-119.78 104.397-122.276 106.224-2.637 1.928-5.747 2.893-8.857 2.893z" fill="#bdbdbd"/>
        <path d="m470.486 61.96c-26.137-26.309-60.456-40.798-96.636-40.798-48.017 0-91.942 26.124-117.204 67.491v403.477c3.109 0 6.22-.965 8.856-2.894 2.496-1.827 61.839-45.428 122.276-106.224 82.895-83.386 125.122-155.695 125.51-214.92.265-40.391-14.936-78.083-42.802-106.132z" fill="#dfdfdf"/>
        <path d="m438.292 182.601c-.034 0-.066 0-.101-.001-8.284-.054-14.955-6.814-14.901-15.098.106-16.241-5.807-31.197-16.65-42.112-9.117-9.176-20.762-14.229-32.789-14.229-8.284 0-15-6.716-15-15s6.716-15 15-15c20.078 0 39.28 8.199 54.07 23.085 16.519 16.626 25.528 39.16 25.369 63.452-.055 8.252-6.76 14.903-14.998 14.903z" fill="#fff"/>
    </symbol>
<!--Icono de alerta-->
<symbol viewBox="0 0 512 512" id="alert" >
<path d="m511.914062 256c0-141.386719-114.59375-256-255.957031-256-141.359375 0-255.957031 114.613281-255.957031 256s114.597656 256 255.957031 256c141.363281 0 255.957031-114.613281 255.957031-256zm0 0" fill="#f36986"/>
<path d="m413.855469 54.503906c34.132812 43.5 54.492187 98.332032 54.492187 157.921875 0 141.382813-114.597656 256-255.957031 256-59.582031 0-114.402344-20.363281-157.898437-54.503906 46.859374 59.714844 119.683593 98.078125 201.464843 98.078125 141.363281 0 255.957031-114.613281 255.957031-256 0-81.796875-38.355468-154.632812-98.058593-201.496094zm0 0" fill="#fc476e"/>
<path d="m272.210938 299h-32.507813c-6.4375 0-11.65625-5.21875-11.65625-11.660156v-147.199219c0-6.441406 5.21875-11.660156 11.65625-11.660156h32.507813c6.4375 0 11.660156 5.21875 11.660156 11.660156v147.199219c0 6.441406-5.21875 11.660156-11.660156 11.660156zm0 0" fill="#ffd2e3"/>
<path d="m272.214844 128.480469h-21.066406c6.4375 0 11.65625 5.21875 11.65625 11.660156v147.199219c0 6.441406-5.21875 11.660156-11.65625 11.660156h21.066406c6.4375 0 11.65625-5.222656 11.65625-11.660156v-147.199219c0-6.441406-5.21875-11.660156-11.65625-11.660156zm0 0" fill="#ffbbd7"/>
<path d="m255.957031 391.804688c-15.414062 0-27.910156-12.5-27.910156-27.914063v-.007813c0-15.414062 12.496094-27.914062 27.910156-27.914062 15.414063 0 27.914063 12.5 27.914063 27.914062v.007813c0 15.414063-12.5 27.914063-27.914063 27.914063zm0 0" fill="#ffd2e3"/>
<path d="m255.957031 335.96875c-2.246093 0-4.429687.273438-6.523437.773438 12.269531 2.941406 21.390625 13.972656 21.390625 27.144531 0 13.167969-9.121094 24.203125-21.390625 27.140625 2.09375.503906 4.277344.777344 6.523437.777344 15.417969 0 27.914063-12.5 27.914063-27.917969s-12.5-27.917969-27.914063-27.917969zm0 0" fill="#ffbbd7"/>
</symbol>

<!--Logo principal-->
    <symbol id="logo" viewBox="0 0 512 512">
     <g>
        <path style="fill:#E37500;" d="M428.061,417.029c0,19.89-6.21,35.14-18.44,45.31c-25.75,21.41-70.309,13.14-109.629,5.84
            c-16.83-3.13-32.72-6.08-43.99-6.08c-13.06,0-30,3.11-47.94,6.4c-20.53,3.77-41.43,7.6-60.24,7.6c-17.69,0-33.54-3.38-45.55-13.39
            c-12.16-10.13-18.33-25.5-18.33-45.68c0-41.53,18.49-88.649,49.45-126.029c34.45-41.6,77.989-64.5,122.609-64.5
            s88.159,22.9,122.609,64.5C409.571,328.38,428.061,375.499,428.061,417.029z"/>
        <path style="fill:#E37500;" d="M400.091,128.271c0,23.64-6.38,46.05-17.96,63.13c-12.6,18.58-30.65,29.24-49.52,29.24
            c-18.86,0-36.91-10.66-49.51-29.24c-11.58-17.08-17.96-39.49-17.96-63.13s6.38-46.05,17.96-63.13
            c12.6-18.58,30.65-29.24,49.51-29.24c18.87,0,36.92,10.66,49.52,29.24C393.711,82.221,400.091,104.631,400.091,128.271z"/>
        <path style="fill:#E37500;" d="M179.389,220.636c18.866,0,36.914-10.658,49.518-29.241c11.578-17.071,17.955-39.489,17.955-63.124
            s-6.377-46.055-17.955-63.126c-12.604-18.583-30.652-29.24-49.518-29.24s-36.915,10.658-49.518,29.24
            c-11.578,17.071-17.955,39.49-17.955,63.126s6.377,46.055,17.955,63.126C142.475,209.979,160.523,220.636,179.389,220.636z"/>
        <path style="fill:#E37500;" d="M512,231.5c0,9.66-1.69,19.62-5.06,29.26c-7.27,20.81-21.25,37.34-38.36,45.34
            c-7.07,3.31-14.45,4.98-21.68,4.98c-5.45,0-10.82-0.95-15.9-2.86c-14.7-5.52-25.59-18.08-30.67-35.36
            c-4.6-15.64-3.86-33.62,2.09-50.62c7.27-20.82,21.25-37.34,38.35-45.35c12.42-5.81,25.76-6.56,37.59-2.12
            c14.69,5.52,25.58,18.08,30.66,35.36C511.01,216.9,512,224.12,512,231.5z"/>
        <path style="fill:#E37500;" d="M111.672,272.86c4.597-15.637,3.856-33.615-2.085-50.624c-7.271-20.813-21.252-37.341-38.357-45.345
            c-12.413-5.809-25.761-6.561-37.585-2.121c-14.694,5.521-25.585,18.08-30.666,35.363c-4.597,15.637-3.856,33.615,2.085,50.623l0,0
            c7.272,20.814,21.252,37.341,38.357,45.345c7.076,3.311,14.455,4.979,21.682,4.979c5.452,0,10.818-0.95,15.902-2.859
            C95.702,302.703,106.591,290.144,111.672,272.86z"/>
     </g>
     <g>
        <path style="fill:#974C00;" d="M283.102,191.401c-11.58-17.08-17.96-39.49-17.96-63.13s6.38-46.05,17.96-63.13
            c12.6-18.58,30.65-29.24,49.51-29.24c18.87,0,36.92,10.66,49.52,29.24c11.58,17.08,17.96,39.49,17.96,63.13
            s-6.38,46.05-17.96,63.13c-12.6,18.58-30.65,29.24-49.52,29.24C313.752,220.64,295.702,209.98,283.102,191.401z"/>
        <path style="fill:#974C00;" d="M378.611,291c30.96,37.38,49.45,84.499,49.45,126.029c0,19.89-6.21,35.14-18.44,45.31
            c-25.75,21.41-70.309,13.14-109.629,5.84c-16.83-3.13-32.72-6.08-43.99-6.08V226.5C300.622,226.5,344.162,249.4,378.611,291z"/>
        <path style="fill:#974C00;" d="M512,231.5c0,9.66-1.69,19.62-5.06,29.26c-7.27,20.81-21.25,37.34-38.36,45.34
            c-7.07,3.31-14.45,4.98-21.68,4.98c-5.45,0-10.82-0.95-15.9-2.86c-14.7-5.52-25.59-18.08-30.67-35.36
            c-4.6-15.64-3.86-33.62,2.09-50.62c7.27-20.82,21.25-37.34,38.35-45.35c12.42-5.81,25.76-6.56,37.59-2.12
            c14.69,5.52,25.58,18.08,30.66,35.36C511.01,216.9,512,224.12,512,231.5z"/>
     </g>
    </symbol>
<!--Lupa-->
                   <symbol id="lupa"  viewBox="0 0 485.213 485.213" >
                        <path style="fill:#e1bf97;" d="M363.909,181.955C363.909,81.473,282.44,0,181.956,0C81.474,0,0.001,81.473,0.001,181.955s81.473,181.951,181.955,181.951
                       C282.44,363.906,363.909,282.437,363.909,181.955z M181.956,318.416c-75.252,0-136.465-61.208-136.465-136.46
                       c0-75.252,61.213-136.465,136.465-136.465c75.25,0,136.468,61.213,136.468,136.465
                       C318.424,257.208,257.206,318.416,181.956,318.416z"/>
                       <path style="fill:#e1bf97;" d="M471.882,407.567L360.567,296.243c-16.586,25.795-38.536,47.734-64.331,64.321l111.324,111.324
                       c17.772,17.768,46.587,17.768,64.321,0C489.654,454.149,489.654,425.334,471.882,407.567z"/>
                   </symbol>
<!--Icono mini ubicacion-->
    <symbol id="ubic" viewBox="0 0 486.3 486.3" >
        <path style="fill:#CD2A00;" d="M243.15,0v104.4c44.11,0,80,35.88,80,80c0,44.11-35.89,80-80,80v221.9l146.43-184.1
        c26.29-33.25,40.19-73.21,40.19-115.58C429.77,83.72,346.05,0,243.15,0z"/>
        <path style="fill:#D8D7DA;" d="M323.15,184.4c0-44.12-35.89-80-80-80v160C287.26,264.4,323.15,228.51,323.15,184.4z"/>
        <path style="fill:#FF3501;" d="M163.15,184.4c0-44.12,35.89-80,80-80V0C140.25,0,56.53,83.72,56.53,186.62
        c0,42.37,13.9,82.33,40.23,115.62L243.15,486.3V264.4C199.04,264.4,163.15,228.51,163.15,184.4z"/>
        <path style="fill:#FFFFFF;" d="M163.15,184.4c0,44.11,35.89,80,80,80v-160C199.04,104.4,163.15,140.28,163.15,184.4z"/>
    </symbol>
<!--Icono chica-->
    <symbol id="icon-girl" viewBox="0 -2 512.00036 512">
        <path d="m492.804688 266.25c0 78.164062.671874 149.722656-73.011719 149.722656h-33.894531l-30.203126-69.003906 97.808594-95.578125zm0 0" fill="#c86d5c"/>
        <path d="m100.324219 266.25c0 78.164062-.675781 149.722656 73.007812 149.722656h33.894531l30.203126-69.003906-97.808594-95.578125zm0 0" fill="#ad4f3d"/>
        <path d="m496.019531 208.566406c0-55.484375-20.597656-107.703125-57.996093-147.042968-37.714844-39.675782-87.953126-61.523438-141.460938-61.523438s-103.746094 21.847656-141.460938 61.523438c-37.398437 39.339843-57.996093 91.558593-57.996093 147.042968zm0 0" fill="#c86d5c"/>
        <path d="m323.347656 1.867188c-8.804687-1.226563-17.746094-1.867188-26.785156-1.867188-53.507812 0-103.746094 21.847656-141.460938 61.523438-37.398437 39.339843-57.996093 91.558593-57.996093 147.042968h53.570312c0-55.484375 20.597657-107.703125 57.996094-147.042968 31.34375-32.972657 71.34375-53.621094 114.675781-59.65625zm0 0" fill="#ad4f3d"/>
        <path d="m81.125 231.578125c0 22.597656 18.316406 40.914063 40.914062 40.914063 22.59375 0 20.308594-18.316407 20.308594-40.914063 0-22.59375 2.285156-40.910156-20.308594-40.910156-22.597656 0-40.914062 18.316406-40.914062 40.910156zm0 0" fill="#e3b098"/>
        <path d="m512 231.578125c0 22.597656-18.316406 40.914063-40.914062 40.914063-22.59375 0-40.914063-18.316407-40.914063-40.914063 0-22.59375 18.320313-40.910156 40.914063-40.910156 22.597656 0 40.914062 18.316406 40.914062 40.910156zm0 0" fill="#e3b098"/>
        <path d="m382.335938 369.628906s55.1875 41.589844 55.1875 117.023438h-281.921876c0-75.433594 55.1875-117.023438 55.1875-117.023438zm0 0" fill="#eb6da8"/>
        <path d="m348.023438 378.773438c0 28.421874-23.039063 51.460937-51.460938 51.460937s-51.460938-23.039063-51.460938-51.460937c0-28.421876 23.039063-51.460938 51.460938-51.460938s51.460938 23.039062 51.460938 51.460938zm0 0" fill="#e3b098"/>
        <path d="m353.523438 87.589844c2.214843-2.066406 5.734374-1.707032 7.5.753906 29.417968 41.046875 109.769531 101.992188 110.195312 102.3125.542969 5.894531.824219 11.867188.824219 17.910156 0 101.945313-78.5625 184.589844-175.480469 184.589844s-175.484375-82.644531-175.484375-184.589844c0-6.039062.285156-12.011718.824219-17.902344 142.183594-26.898437 214.421875-87.023437 231.621094-103.074218zm0 0" fill="#fbc4ac"/>
        <path d="m151.984375 208.566406c0-4.648437.167969-16.519531.492187-24.429687-9.808593 2.335937-19.992187 4.527343-30.574218 6.527343-.539063 5.890626-.824219 11.859376-.824219 17.902344 0 101.945313 78.566406 184.589844 175.484375 184.589844 5.207031 0 10.359375-.253906 15.453125-.71875-89.675781-8.230469-160.03125-87.402344-160.03125-183.871094zm0 0" fill="#e3b098"/>
        <path d="m207.226562 238.101562c-4.265624 0-7.726562-3.460937-7.726562-7.726562v-17.371094c0-4.265625 3.460938-7.726562 7.726562-7.726562 4.265626 0 7.726563 3.460937 7.726563 7.726562v17.371094c0 4.265625-3.460937 7.726562-7.726563 7.726562zm0 0" fill="#3a484a"/>
        <path d="m219.054688 263.632812h-23.660157c-4.265625 0-7.726562-3.457031-7.726562-7.726562 0-4.265625 3.460937-7.726562 7.726562-7.726562h23.660157c4.265624 0 7.726562 3.460937 7.726562 7.726562 0 4.269531-3.457031 7.726562-7.726562 7.726562zm0 0" fill="#f98084"/>
        <path d="m385.898438 238.101562c-4.265626 0-7.726563-3.460937-7.726563-7.726562v-17.371094c0-4.265625 3.460937-7.726562 7.726563-7.726562 4.269531 0 7.726562 3.460937 7.726562 7.726562v17.371094c0 4.265625-3.457031 7.726562-7.726562 7.726562zm0 0" fill="#3a484a"/>
        <path d="m397.730469 263.632812h-23.660157c-4.269531 0-7.726562-3.457031-7.726562-7.726562 0-4.265625 3.457031-7.726562 7.726562-7.726562h23.660157c4.265625 0 7.722656 3.460937 7.722656 7.726562 0 4.269531-3.457031 7.726562-7.722656 7.726562zm0 0" fill="#f98084"/>
        <path d="m296.5625 262.652344c-8.457031 0-16.402344-3.539063-21.796875-9.710938-2.808594-3.214844-2.480469-8.09375.734375-10.902344 3.210938-2.808593 8.089844-2.480468 10.902344.730469 2.457031 2.816407 6.164062 4.429688 10.160156 4.429688s7.703125-1.613281 10.160156-4.429688c2.808594-3.210937 7.691406-3.539062 10.902344-.730469 3.214844 2.808594 3.542969 7.6875.734375 10.902344-5.394531 6.171875-13.339844 9.710938-21.796875 9.710938zm0 0" fill="#3a484a"/>
        <path d="m15.683594 290.132812c-5.445313-.46875-10.429688 3.035157-11.929688 8.289063-3.996094 14.015625-8.828125 43.011719 9.085938 68.222656l47.179687-56.023437s-17.097656-18.160156-44.335937-20.488282zm0 0" fill="#b8b8b8"/>
        <path d="m208.289062 290.132812c5.445313-.46875 10.429688 3.035157 11.929688 8.289063 4 14.015625 8.828125 43.011719-9.082031 68.222656l-47.183594-56.023437s17.097656-18.160156 44.335937-20.488282zm0 0" fill="#b8b8b8"/>
        <path d="m217.3125 402.25c0 58.171875-47.15625 105.328125-105.324219 105.328125-58.171875 0-105.328125-47.15625-105.328125-105.328125 0-58.167969 47.15625-105.324219 105.328125-105.324219 58.167969 0 105.324219 47.15625 105.324219 105.324219zm0 0" fill="#d2d2d2"/>
        <path d="m132.589844 497.273438c-58.167969 0-105.324219-47.152344-105.324219-105.324219 0-37.140625 19.226563-69.785157 48.261719-88.539063-40.199219 14.832032-68.867188 53.488282-68.867188 98.839844 0 58.171875 47.15625 105.328125 105.328125 105.328125 21.027344 0 40.617188-6.167969 57.0625-16.789063-11.363281 4.195313-23.644531 6.484376-36.460937 6.484376zm0 0" fill="#b8b8b8"/><g fill="#3a484a"><path d="m56.359375 401.660156c-4.265625 0-7.726563-3.460937-7.726563-7.726562v-10.144532c0-4.265624 3.460938-7.726562 7.726563-7.726562s7.726563 3.460938 7.726563 7.726562v10.144532c0 4.265625-3.460938 7.726562-7.726563 7.726562zm0 0"/>
        <path d="m168.464844 401.660156c-4.265625 0-7.726563-3.460937-7.726563-7.726562v-10.144532c0-4.265624 3.460938-7.726562 7.726563-7.726562 4.269531 0 7.726562 3.460938 7.726562 7.726562v10.144532c0 4.265625-3.457031 7.726562-7.726562 7.726562zm0 0"/>
        <path d="m136.128906 394.308594c-3.210937-2.808594-8.09375-2.480469-10.902344.730468-.824218.941407-2.097656 1.480469-3.5 1.480469-1.398437 0-2.675781-.539062-3.496093-1.480469-1.457031-1.648437-3.625-2.632812-5.828125-2.632812-2.199219 0-4.355469.988281-5.808594 2.632812-.820312.941407-2.097656 1.480469-3.496094 1.480469-1.402344 0-2.679687-.539062-3.5-1.480469-2.808594-3.210937-7.691406-3.539062-10.902344-.730468-3.214843 2.808594-3.542968 7.6875-.734374 10.902344 3.757812 4.296874 9.273437 6.761718 15.136718 6.761718 3.300782 0 6.480469-.804687 9.3125-2.261718 2.832032 1.457031 6.011719 2.261718 9.316406 2.261718 5.859376 0 11.375-2.464844 15.132813-6.761718 2.808594-3.214844 2.480469-8.09375-.730469-10.902344zm0 0"/></g><path d="m200.511719 33.058594c40.6875 40.6875-58.628907 46.050781-58.628907 46.050781s5.363282-99.316406 46.050782-58.628906zm0 0" fill="#eb6da8"/>
        <path d="m95.832031 137.738281c40.6875 40.6875 46.050781-58.628906 46.050781-58.628906s-99.3125 5.363281-58.625 46.050781zm0 0" fill="#eb6da8"/>
        <path d="m128.464844 60.84375-4.84375 4.84375c-7.347656 7.34375-7.347656 19.253906 0 26.597656l5.085937 5.085938c7.347657 7.347656 19.253907 7.347656 26.597657 0l4.84375-4.839844c7.34375-7.347656 7.34375-19.253906 0-26.597656l-5.089844-5.089844c-7.34375-7.34375-19.25-7.34375-26.59375 0zm0 0" fill="#ff98c9"/>
    </symbol>
<!--Icono chico-->
    <symbol id="icon-boy" viewBox="0 -1 511.9999 511">
        <path d="m417.171875 207.832031h-402.953125c0-56.007812 20.792969-108.726562 58.554688-148.445312.792968-.835938 1.59375-1.664063 2.398437-2.484375 47.808594-48.675782 118.390625-67.300782 184.429687-50.160156 50.1875 13.023437 86.082032 29.664062 120.195313 24.445312 19.851563-3.039062 38.574219 10.164062 41.882813 29.972656 5.957031 35.664063 14.933593 89.535156-4.507813 146.671875zm0 0" fill="#c86d5c"/>
        <path d="m116.378906 56.90625c31.160156-31.726562 71.996094-50.675781 114.9375-55.289062-57.3125-6.105469-115.113281 13.511718-156.144531 55.289062-.804687.816406-1.605469 1.644531-2.398437 2.480469-37.757813 39.71875-58.554688 92.441406-58.554688 148.449219h41.207031c0-56.007813 20.796875-108.730469 58.554688-148.449219.792969-.835938 1.59375-1.664063 2.398437-2.480469zm0 0" fill="#ad4f3d"/>
        <path d="m0 230.875c0 22.621094 18.339844 40.964844 40.964844 40.964844 22.621094 0 20.359375-18.339844 20.359375-40.964844s2.117187-40.960938-20.503907-40.960938c-22.625 0-40.820312 18.335938-40.820312 40.960938zm0 0" fill="#e3b098"/>
        <path d="m431.390625 230.875c0 22.621094-18.339844 40.964844-40.964844 40.964844-22.621093 0-40.960937-18.339844-40.960937-40.964844s18.484375-40.960938 41.105468-40.960938c22.625 0 40.820313 18.335938 40.820313 40.960938zm0 0" fill="#e3b098"/>
        <path d="m129.820312 369.085938s-55.253906 41.640624-55.253906 117.167968h282.257813c0-75.527344-55.253907-117.167968-55.253907-117.167968zm0 0" fill="#6ee3ff"/>
        <path d="m160.726562 369.085938h-30.90625s-55.253906 41.640624-55.253906 117.164062h30.90625c0-75.523438 55.253906-117.164062 55.253906-117.164062zm0 0" fill="#42c3e2"/>
        <path d="m267.21875 378.246094c0 28.453125-23.066406 51.523437-51.523438 51.523437-28.457031 0-51.523437-23.070312-51.523437-51.523437 0-28.457032 23.066406-51.523438 51.523437-51.523438 28.457032 0 51.523438 23.066406 51.523438 51.523438zm0 0" fill="#e3b098"/>
        <path d="m388.71875 183.109375c-12.644531-39.363281-54.507812-61.308594-94.511719-50.859375-16.226562 4.238281-39.824219 8.230469-72.585937 9.125-70.226563 1.914062-125.121094-29.394531-170.539063 32.605469-7.148437 9.761719-11.066406 21.570312-11.078125 33.671875v.179687c0 102.070313 78.660156 184.8125 175.691406 184.8125s175.691407-82.742187 175.691407-184.8125c0-6.066406-.285157-12.058593-.828125-17.976562-.523438-2.3125-1.136719-4.5625-1.839844-6.746094zm0 0" fill="#fbc4ac"/>
        <path d="m70.910156 207.832031c0-.058593 0-.121093 0-.179687.007813-12.101563 3.925782-23.910156 11.078125-33.671875 19.097657-26.074219 39.878907-35.640625 62.765625-38.121094-35.515625-2.710937-66.3125.777344-93.671875 38.121094-7.148437 9.761719-11.066406 21.570312-11.078125 33.671875v.179687c0 102.070313 78.660156 184.8125 175.691406 184.8125 5.207032 0 10.359376-.25 15.453126-.71875-89.792969-8.234375-160.238282-87.5-160.238282-184.09375zm0 0" fill="#e3b098"/>
        <path d="m454.304688 453.234375c-4.507813 11.34375-11.273438 21.535156-19.761719 30.023437-16.046875 16.050782-38.222657 25.984376-62.71875 25.984376-37.449219 0-69.464844-23.199219-82.480469-56.007813l44.316406-134.785156c11.5625-5.527344 24.496094-8.613281 38.164063-8.613281 13.664062 0 26.597656 3.085937 38.160156 8.613281zm0 0" fill="#efedee"/>
        <path d="m510.59375 418.699219c-3.777344-8.246094-7.957031-23.308594-7.957031-49.613281 0-48.015626-30.941407-60.28125-71.601563-36.582032l27.484375 106.828125c21.359375 8.300781 36.46875 4.390625 45.910157-1.046875 6.824218-3.929687 9.445312-12.425781 6.164062-19.585937zm0 0" fill="#ad4f3d"/>
        <path d="m233.050781 418.699219c3.78125-8.246094 7.960938-23.308594 7.960938-49.613281 0-48.015626 30.941406-60.28125 71.601562-36.582032l-27.488281 106.828125c-21.355469 8.300781-36.46875 4.390625-45.90625-1.046875-6.824219-3.929687-9.445312-12.425781-6.167969-19.585937zm0 0" fill="#ad4f3d"/>
        <path d="m460.523438 398.539062v22c0 11.539063-2.207032 22.578126-6.21875 32.695313-18.65625-1.835937-38.335938-9.074219-50.15625-24.277344-19.441407-25.003906-13.285157-66.082031-3.21875-93.621093 2.125-5.808594 4.828124-12.140626 9.054687-16.886719 29.882813 14.253906 50.539063 44.765625 50.539063 80.089843zm0 0" fill="#c86d5c"/>
        <path d="m283.121094 398.539062v22c0 11.539063 2.210937 22.578126 6.222656 32.695313 18.65625-1.835937 38.335938-9.074219 50.15625-24.277344 19.441406-25.003906 13.285156-66.082031 3.21875-93.621093-2.125-5.808594-4.828125-12.140626-9.054688-16.886719-29.882812 14.253906-50.542968 44.765625-50.542968 80.089843zm0 0" fill="#c86d5c"/>
        <path d="m305.136719 237.394531c4.269531 0 7.726562-3.457031 7.726562-7.726562v-17.390625c0-4.265625-3.457031-7.726563-7.726562-7.726563-4.265625 0-7.726563 3.460938-7.726563 7.726563v17.390625c0 4.269531 3.460938 7.726562 7.726563 7.726562zm0 0" fill="#3a484a"/>
        <path d="m316.980469 247.503906h-23.6875c-4.265625 0-7.726563 3.460938-7.726563 7.726563 0 4.269531 3.460938 7.726562 7.726563 7.726562h23.6875c4.269531 0 7.726562-3.457031 7.726562-7.726562 0-4.265625-3.457031-7.726563-7.726562-7.726563zm0 0" fill="#f98084"/>
        <path d="m126.25 237.394531c4.269531 0 7.726562-3.457031 7.726562-7.726562v-17.390625c0-4.265625-3.457031-7.726563-7.726562-7.726563-4.265625 0-7.726562 3.460938-7.726562 7.726563v17.390625c0 4.269531 3.460937 7.726562 7.726562 7.726562zm0 0" fill="#3a484a"/>
        <path d="m138.09375 247.503906h-23.6875c-4.265625 0-7.726562 3.460938-7.726562 7.726563 0 4.269531 3.460937 7.726562 7.726562 7.726562h23.6875c4.269531 0 7.726562-3.457031 7.726562-7.726562 0-4.265625-3.457031-7.726563-7.726562-7.726563zm0 0" fill="#f98084"/>
        <path d="m236.777344 241.355469c-3.214844-2.808594-8.09375-2.480469-10.902344.730469-2.464844 2.820312-6.175781 4.4375-10.179688 4.4375-4.007812 0-7.71875-1.617188-10.179687-4.4375-2.808594-3.210938-7.691406-3.542969-10.902344-.734376-3.214843 2.808594-3.542969 7.691407-.734375 10.902344 5.398438 6.179688 13.351563 9.722656 21.816406 9.722656 8.464844 0 16.414063-3.542968 21.8125-9.722656 2.808594-3.210937 2.480469-8.09375-.730468-10.898437zm0 0"/>
        <path d="m398.914062 443.570312c-3.210937-2.808593-8.09375-2.480468-10.902343.734376-1.238281 1.414062-3.125 2.226562-5.183594 2.226562-2.0625 0-3.949219-.8125-5.1875-2.226562-1.371094-1.570313-3.371094-2.53125-5.449219-2.628907-2.320312-.109375-4.65625.878907-6.1875 2.628907-1.234375 1.414062-3.125 2.226562-5.183594 2.226562-2.058593 0-3.949218-.8125-5.1875-2.226562-2.808593-3.214844-7.6875-3.542969-10.902343-.734376-3.210938 2.808594-3.539063 7.691407-.730469 10.902344 4.171875 4.773438 10.300781 7.511719 16.820312 7.511719 3.921876 0 7.703126-1 11.003907-2.832031 3.296875 1.832031 7.078125 2.832031 11.003906 2.832031 6.515625 0 12.648437-2.738281 16.820313-7.511719 2.808593-3.210937 2.480468-8.09375-.734376-10.902344zm0 0"/>
        <path d="m381.757812 426.53125h-19.867187c-3.945313 0-5.050781 5.40625-1.425781 6.96875 3.453125 1.488281 7.300781 2.316406 11.359375 2.316406 4.058593 0 7.90625-.828125 11.359375-2.316406 3.625-1.5625 2.519531-6.96875-1.425782-6.96875zm0 0"/>
        <path d="m314.515625 426.71875c-4.269531 0-7.726563-3.460938-7.726563-7.726562v-10.183594c0-4.269532 3.457032-7.726563 7.726563-7.726563 4.265625 0 7.726563 3.457031 7.726563 7.726563v10.183594c0 4.265624-3.460938 7.726562-7.726563 7.726562zm0 0"/>
        <path d="m429.132812 426.71875c-4.265624 0-7.726562-3.460938-7.726562-7.726562v-10.183594c0-4.269532 3.460938-7.726563 7.726562-7.726563 4.265626 0 7.726563 3.457031 7.726563 7.726563v10.183594c0 4.265624-3.460937 7.726562-7.726563 7.726562zm0 0"/>
    </symbol>

<!--CAMARA-->
<symbol id="camera" viewBox="0 0 64 64"  >
  <path d="m13 14h46a2 2 0 0 1 2 2v10a0 0 0 0 1 0 0h-48a0 0 0 0 1 0 0v-12a0 0 0 0 1 0 0z" fill="#898890"/>
  <path d="m61 26v22a2.006 2.006 0 0 1 -2 2h-46v-24z" fill="#acabb1"/>
  <path d="m17 17h6v5h-6z" fill="#ffda44"/>
  <path d="m54 32a14 14 0 1 1 -1.35-6 14 14 0 0 1 1.35 6z" fill="#57565c"/>
  <circle cx="40" cy="32" fill="#bdfdff" r="10"/>
  <path d="m17 11v3h-8v-3a2.006 2.006 0 0 1 2-2h4a2.006 2.006 0 0 1 2 2z" fill="#e0e0e2"/>
  <path d="m13 14v36h-8a2.006 2.006 0 0 1 -2-2v-32a2.006 2.006 0 0 1 2-2z" fill="#57565c"/>
  <circle cx="37" cy="29" fill="#fff" r="3"/>
</symbol>

<!--CASA PROTECTORA-->
<symbol  id="protectora" viewBox="0 -3 512.0008 512">
<path d="m256 43.269531 197.796875 141.136719v322.445312h-395.589844v-322.445312z" fill="#80c0e4"/>
<path d="m291.765625 219.164062h-71.527344c-44.058593 0-79.777343 35.71875-79.777343 79.777344v68.890625h231.078124v-68.890625c0-44.058594-35.714843-79.777344-79.773437-79.777344zm0 0" fill="#424952"/>
<path d="m111.449219 316.753906c-4.621094 7.699219-4.949219 17.238282-10.074219 24.617188-4.652344 6.703125-12.152344 11.089844-14.691406 19.238281-4.160156 13.347656 6.019531 25.144531 17.59375 30.292969 11.117187 4.945312 30.886718 4.1875 37.332031-8.445313.003906-.003906 34.042969-66.734375 34.042969-66.734375-17.59375-19.4375-49.074219-24.152344-64.203125 1.03125zm0 0" fill="#e1ba68"/>
<path d="m400.550781 316.753906c4.625 7.699219 4.953125 17.238282 10.074219 24.617188 4.652344 6.703125 12.152344 11.089844 14.691406 19.238281 4.160156 13.347656-6.019531 25.144531-17.589844 30.292969-11.117187 4.945312-30.890624 4.1875-37.332031-8.445313-.003906-.003906-34.042969-66.734375-34.042969-66.734375 17.589844-19.4375 49.074219-24.152344 64.199219 1.03125zm0 0" fill="#e1ba68"/>
<path d="m256 283.195312c-63.8125 0-115.539062 51.730469-115.539062 115.542969v108.113281h231.078124v-108.113281c0-63.8125-51.726562-115.542969-115.539062-115.542969zm0 0" fill="#eee07d"/>
<path d="m284.515625 506.851562c-17.796875-21.839843.539063-68.492187 67.410156-68.492187 70.378907 0 48.269531 68.492187 27.503907 68.492187zm0 0" fill="#e1ba68"/>
<path d="m227.484375 506.851562c17.796875-21.839843-.535156-68.492187-67.410156-68.492187-70.378907 0-48.265625 68.492187-27.503907 68.492187zm0 0" fill="#e1ba68"/>
<g fill="#424952">
<path d="m203.859375 364.371094c-4.265625 0-7.726563 3.460937-7.726563 7.726562v9.4375c0 4.265625 3.460938 7.726563 7.726563 7.726563s7.726563-3.460938 7.726563-7.726563v-9.4375c0-4.265625-3.460938-7.726562-7.726563-7.726562zm0 0"/>
<path d="m308.140625 364.371094c-4.265625 0-7.726563 3.460937-7.726563 7.726562v9.4375c0 4.265625 3.460938 7.726563 7.726563 7.726563 4.269531 0 7.726563-3.460938 7.726563-7.726563v-9.4375c0-4.265625-3.457032-7.726562-7.726563-7.726562zm0 0"/>
<path d="m241.84375 385.121094c4.300781 1.855468 9.101562 2.890625 14.15625 2.890625 5.058594 0 9.855469-1.035157 14.160156-2.890625 4.515625-1.945313 3.136719-8.679688-1.78125-8.679688h-24.757812c-4.917969-.003906-6.292969 6.734375-1.777344 8.679688zm0 0"/>
<path d="m284.160156 393.425781c-3.210937-2.808593-8.09375-2.480469-10.902344.734375-1.367187 1.5625-3.453124 2.460938-5.71875 2.460938-2.269531 0-4.351562-.898438-5.722656-2.460938-1.359375-1.558594-3.378906-2.527344-5.441406-2.628906-2.324219-.109375-4.65625.871094-6.191406 2.628906-1.371094 1.5625-3.453125 2.460938-5.722656 2.460938-2.265626 0-4.351563-.898438-5.71875-2.460938-2.808594-3.214844-7.6875-3.542968-10.902344-.734375-3.210938 2.808594-3.539063 7.6875-.730469 10.902344 4.300781 4.921875 10.628906 7.746094 17.351563 7.746094 4.125 0 8.089843-1.0625 11.539062-3.015625 3.449219 1.953125 7.417969 3.015625 11.539062 3.015625 6.726563 0 13.050782-2.824219 17.355469-7.746094 2.808594-3.214844 2.476563-8.09375-.734375-10.902344zm0 0"/>
</g>
<path d="m58.207031 184.40625v89.914062c5.308594-1.472656 10.320313-3.925781 14.84375-7.300781l182.949219-136.589843 182.953125 136.589843c4.519531 3.375 9.535156 5.828125 14.84375 7.300781v-89.914062l-197.796875-141.136719zm0 0" fill="#5ba0d3"/>
<path d="m506.335938 176.761719-225.886719-168.640625c-14.5-10.828125-34.394531-10.828125-48.894531 0l-225.886719 168.640625c-6.242188 4.660156-7.523438 13.5-2.867188 19.738281l32.023438 42.890625c4.660156 6.242187 13.496093 7.523437 19.738281 2.863281l201.4375-150.390625 201.441406 150.390625c6.238282 4.660156 15.078125 3.378906 19.734375-2.863281l32.023438-42.890625c4.65625-6.242188 3.375-15.078125-2.863281-19.738281zm0 0" fill="#eee07d"/>
</symbol>

<!--PATITAS PARA BREADCRUMB-->
    <!--Patita 1-->
    <symbol id="paw-01" viewBox="0 0 82.919 82.919">
      <path d="M82.84,20.681c-0.329-0.189-1.439,1.348-3.104,3.667c-4.293-0.299-13.979-2.822-16.839-6.276
        c-0.274-2.62-0.57-4.351-0.883-4.351c-0.329,0-0.644,1.913-0.927,4.765c-2.819,3.716-11.024,6.91-16.218,6.673
        c-1.548-2.31-2.531-4.05-2.711-4.478c-1.333,3.114,9.025,22.483,18.466,24.897c0.808,0.205,0.883,0.328,1.143,0.214
        c0.085,0.01,0.16,0.048,0.247,0.048c0.203,0,0.385-0.065,0.572-0.113c0.393,0.221,0.345,0.093,1.275-0.145
        C73.303,43.164,83.941,21.318,82.84,20.681z M59.799,40.6c-6.111-3.553-11.567-10.457-14.747-15.161
        c6.288,1.142,14.108-2.92,15.983-6.426C60.441,25.303,59.985,35.567,59.799,40.6z M64.232,40.792
        c-0.191-5.185-0.684-16.375-1.327-22.627c3.321,5.081,11.226,6.9,16.668,6.41C76.16,29.328,70.501,37.136,64.232,40.792z"/>
      <path d="M38.05,48.52c-5.198,0.232-13.4-2.959-16.22-6.675c-0.283-2.85-0.597-4.765-0.925-4.765c-0.314,0-0.613,1.731-0.883,4.351
        c-2.864,3.455-12.548,5.978-16.84,6.276c-1.665-2.317-2.775-3.854-3.103-3.668c-1.103,0.639,9.537,22.482,18.979,24.9
        c0.929,0.237,0.883,0.367,1.275,0.144c0.187,0.048,0.369,0.114,0.573,0.114c0.085,0,0.161-0.039,0.245-0.048
        c0.261,0.114,0.336-0.005,1.144-0.215c9.441-2.413,19.801-21.779,18.465-24.896C40.579,44.468,39.596,46.209,38.05,48.52z
        M18.683,64.15c-6.27-3.654-11.929-11.465-15.341-16.219c5.443,0.493,13.347-1.327,16.668-6.408
        C19.368,47.774,18.875,58.965,18.683,64.15z M23.117,63.958c-0.187-5.032-0.642-15.3-1.235-21.588
        c1.877,3.508,9.693,7.565,15.983,6.423C34.684,53.504,29.228,60.404,23.117,63.958z"/>
    </symbol>
    <!--Patita 2-->
    <symbol id="paw-02" viewBox="0 0 68.119 68.119" >
    		<path d="M57.12,20.099c2.183,0.584,4.605-3.725,5.413-6.741c0.808-3.018-0.304-3.602-2.484-4.186
			c-2.179-0.584-4.604-0.947-5.41,2.069C53.828,14.26,54.939,19.515,57.12,20.099z"/>
		<path d="M52.745,29.449c-3.125,0-5.657-0.404-5.657,1.403c0,1.804,2.532,5.132,5.657,5.135c3.125,0,5.657-3.331,5.657-5.135
			C58.402,29.045,55.87,29.452,52.745,29.449z"/>
		<path d="M48.37,20.099c2.183-0.584,3.291-5.839,2.483-8.857c-0.812-3.018-3.231-2.653-5.412-2.069
			c-2.179,0.584-3.292,1.168-2.482,4.186C43.767,16.376,46.189,20.683,48.37,20.099z"/>
		<path d="M38.881,19.125c-1.733,1-2.011,3.209-0.632,5.605c1.385,2.395,6.243,3.529,7.977,2.529
			c1.731-0.999-0.324-3.752-1.706-6.147C43.14,18.717,40.616,18.126,38.881,19.125z"/>
		<path d="M66.611,19.125c-1.733-0.999-4.256-0.41-5.639,1.987c-1.385,2.393-3.442,5.148-1.708,6.147
			c1.733,1,6.594-0.134,7.977-2.529C68.621,22.334,68.346,20.129,66.611,19.125z"/>
		<path d="M19.748,43.457c2.182,0.584,4.604-3.725,5.412-6.74c0.809-3.018-0.304-3.602-2.483-4.186
			c-2.18-0.584-4.604-0.947-5.412,2.068C16.457,37.618,17.566,42.873,19.748,43.457z"/>
		<path d="M15.373,52.808c-3.125,0-5.657-0.404-5.657,1.402c0,1.805,2.532,5.133,5.657,5.135c3.125,0,5.657-3.33,5.657-5.135
			C21.03,52.403,18.498,52.81,15.373,52.808z"/>
		<path d="M10.998,43.457c2.182-0.584,3.292-5.839,2.483-8.857c-0.811-3.018-3.232-2.652-5.412-2.068
			c-2.18,0.584-3.292,1.167-2.483,4.186C6.394,39.734,8.816,44.041,10.998,43.457z"/>
		<path d="M1.508,42.483c-1.734,0.999-2.011,3.209-0.631,5.604c1.383,2.396,6.243,3.528,7.977,2.529
			c1.731-0.999-0.325-3.752-1.708-6.147C5.767,42.075,3.244,41.484,1.508,42.483z"/>
		<path d="M29.239,42.483c-1.734-0.999-4.257-0.41-5.639,1.986c-1.384,2.394-3.441,5.148-1.707,6.147
			c1.733,0.999,6.593-0.134,7.977-2.529C31.25,45.692,30.972,43.487,29.239,42.483z"/>
    </symbol>
    <!--Patita 3-->
    <symbol id="paw-03" viewBox="0 0 72.484 72.483" >
    	<path d="M54.774,23.41c0.769,0,1.392-0.623,1.392-1.392c0-0.769,0.78-18.189-1.392-17.984s-1.392,17.215-1.392,17.984
			C53.382,22.789,54.005,23.41,54.774,23.41z"/>
		<path d="M57.083,22.646c-0.73,0.241-0.157,1.516,0.509,1.899c0.664,0.386,0.372,0.306,1.115,0.117
			c5.693-1.458,12.856-13.961,11.448-15.02C68.748,8.587,63.579,20.505,57.083,22.646z"/>
		<path d="M52.233,24.545c0.666-0.385,1.241-1.658,0.509-1.899C46.243,20.505,41.68,8.764,39.979,9.646
			c-1.703,0.881,5.445,13.561,11.141,15.019C51.864,24.854,51.569,24.931,52.233,24.545z"/>
		<path d="M55.285,24.947c-0.714-0.285-2.068,0.056-1.807,0.777c2.341,6.426-3.754,17.032-1.865,17.812
			c1.891,0.78,6.838-12.413,4.454-17.786C55.754,25.047,55.997,25.232,55.285,24.947z"/>
		<path d="M55.431,2.846C55.431,2.051,54.772,0,54.772,0s-0.659,2.051-0.659,2.846C54.113,3.637,55.431,2.846,55.431,2.846z"/>
		<path d="M50.668,44.011c-0.411,0.68-0.908,2.778-0.908,2.778s1.624-1.414,2.034-2.094C52.206,44.016,50.668,44.011,50.668,44.011z
			"/>
		<path d="M38.33,6.181c0,0,0.123,2.151,0.406,2.895c0.285,0.738,1.231-0.474,1.231-0.474C39.682,7.858,38.33,6.181,38.33,6.181z"/>
		<path d="M69.868,8.589c-0.292,0.738,1.225,0.486,1.225,0.486c0.292-0.738,0.437-2.89,0.437-2.89S70.16,7.854,69.868,8.589z"/>
		<path d="M17.709,49.103c0.769,0,1.393-0.62,1.393-1.392c0-0.767,0.78-17.775-1.393-17.983c-2.172-0.205-1.392,17.216-1.392,17.983
			C16.317,48.482,16.94,49.103,17.709,49.103z"/>
		<path d="M2.325,35.336c-1.411,1.059,5.753,13.562,11.45,15.021c0.744,0.191,0.449,0.269,1.114-0.119
			c0.666-0.383,1.241-1.656,0.51-1.897C8.903,46.198,3.736,34.281,2.325,35.336z"/>
		<path d="M19.741,48.341c-0.729,0.241-0.154,1.515,0.509,1.897c0.664,0.383,0.372,0.306,1.117,0.119
			c5.695-1.46,12.842-14.139,11.14-15.021C30.801,34.456,26.237,46.198,19.741,48.341z"/>
		<path d="M19.006,51.42c0.261-0.723-1.094-1.062-1.808-0.78c-0.713,0.288-0.47,0.101-0.782,0.803
			c-2.385,5.375,2.564,18.568,4.454,17.788C22.759,68.446,16.661,57.844,19.006,51.42z"/>
		<path d="M18.371,28.54c0-0.795-0.66-2.845-0.66-2.845s-0.66,2.05-0.66,2.845C17.051,28.54,18.371,29.331,18.371,28.54z"/>
		<path d="M20.687,70.39c0.412,0.68,2.037,2.094,2.037,2.094s-0.497-2.099-0.908-2.778C21.816,69.705,20.278,69.71,20.687,70.39z"/>
		<path d="M33.747,34.77c0.285-0.742,0.406-2.895,0.406-2.895s-1.355,1.678-1.64,2.42C32.515,34.295,33.462,35.507,33.747,34.77z"/>
		<path d="M2.615,34.283c-0.292-0.735-1.661-2.404-1.661-2.404s0.14,2.152,0.435,2.89C1.389,34.77,2.907,35.021,2.615,34.283z"/>

    </symbol>
    <!--Patita 4-->
    <symbol id="paw-04" viewBox="0 0 64.984 64.984">
    		<path d="M54.539,29.305c-3.624-0.07-8.511-4.793-11.46-4.629c-2.479,0.138-3.116,3.461-3.403,6.034
			c-0.285,2.574-0.352,7.729,0.844,11.309c1.195,3.581,4.426,8.711,8.639,8.431c4.216-0.28,6.132-2.596,8.586-7.478
			c2.452-4.879,4.829-13.385,3.497-14.301C59.904,27.758,57.099,29.354,54.539,29.305z"/>
		<path d="M43.679,21.295c-0.598,0.811,1.805,2.453,4.846,3.916c1.973,0.948,4.365,2.167,6.638,2.316
			c4.795,0.318,6.351-2.171,6.462-4.213c0.085-1.582-3.682-1.687-4.901-1.649c-2.35,0.067-3.702-1.422-6.371-1.633
			C47.683,19.821,44.662,19.961,43.679,21.295z"/>
		<path d="M39.988,22.944c0.579,0.209,1.793-0.79,2.375-2.107c0.579-1.317,0.579-2.634,0-2.845c-0.582-0.21-1.898,0.42-2.375,1.579
			C39.514,20.732,39.409,22.734,39.988,22.944z"/>
		<path d="M46.1,17.992c0.205-0.848,0.526-7.797,0.107-8.64c-0.423-0.844-1.793-1.582-2.32-0.316
			c-0.527,1.264-0.319,5.91,0.16,8.587C44.361,19.394,45.732,19.527,46.1,17.992z"/>
		<path d="M50.251,17.521c0.205-0.849,0.527-7.798,0.104-8.641c-0.422-0.843-1.793-1.581-2.317-0.317
			c-0.526,1.266-0.319,5.912,0.157,8.588C48.511,18.921,49.882,19.055,50.251,17.521z"/>
		<path d="M55.021,18.373c0.212-0.883,0.548-8.106,0.112-8.982c-0.438-0.876-1.864-1.641-2.411-0.329
			c-0.548,1.313-0.331,6.143,0.164,8.927C53.212,19.828,54.635,19.966,55.021,18.373z"/>
		<path d="M59.612,19.417c0.212-0.844,0.548-7.736,0.109-8.576c-0.438-0.836-1.861-1.569-2.408-0.314
			c-0.546,1.254-0.331,5.867,0.164,8.523C57.806,20.807,59.229,20.938,59.612,19.417z"/>
		<path d="M42.201,16.383c0.265-0.609-1.581-3.816-1.581-3.816v4.583C40.62,17.149,41.938,16.993,42.201,16.383z"/>
		<path d="M45.798,6.402c0.263-0.869-1.225-5.893-1.225-5.893L44.19,7.042C44.19,7.04,45.533,7.271,45.798,6.402z"/>
		<path d="M49.932,5.893C50.194,5.022,48.709,0,48.709,0l-0.383,6.533C48.323,6.531,49.669,6.759,49.932,5.893z"/>
		<path d="M54.658,6.402c0.265-0.869-1.226-5.893-1.226-5.893l-0.378,6.533C53.052,7.04,54.396,7.271,54.658,6.402z"/>
		<path d="M59.252,7.875c0.263-0.868-1.223-5.893-1.223-5.893l-0.383,6.533C57.646,8.515,58.987,8.745,59.252,7.875z"/>
		<path d="M21.906,39.198c-2.952-0.165-7.834,4.558-11.459,4.628c-2.562,0.048-5.367-1.547-6.702-0.632
			c-1.333,0.915,1.045,9.421,3.497,14.302c2.453,4.877,4.371,7.195,8.584,7.478c4.216,0.278,7.447-4.854,8.64-8.431
			c1.196-3.581,1.128-8.736,0.843-11.31C25.022,42.658,24.385,39.335,21.906,39.198z"/>
		<path d="M9.821,42.054c2.273-0.15,4.665-1.368,6.639-2.317c3.041-1.462,5.441-3.104,4.844-3.914
			c-0.983-1.335-4.003-1.474-6.671-1.264c-2.67,0.209-4.023,1.701-6.372,1.633c-1.217-0.039-4.987,0.068-4.901,1.646
			C3.471,39.878,5.026,42.368,9.821,42.054z"/>
		<path d="M24.995,37.471c0.579-0.212,0.474-2.212,0-3.373c-0.475-1.159-1.792-1.791-2.374-1.579c-0.58,0.21-0.58,1.528,0,2.845
			C23.203,36.68,24.416,37.681,24.995,37.471z"/>
		<path d="M20.938,32.147c0.478-2.677,0.687-7.322,0.159-8.586c-0.528-1.266-1.897-0.528-2.32,0.315
			c-0.42,0.844-0.098,7.792,0.107,8.641C19.251,34.052,20.622,33.92,20.938,32.147z"/>
		<path d="M16.789,31.675c0.477-2.676,0.685-7.322,0.158-8.588c-0.528-1.264-1.897-0.528-2.318,0.317
			c-0.423,0.844-0.1,7.793,0.105,8.641C15.103,33.58,16.474,33.449,16.789,31.675z"/>
		<path d="M12.101,32.515c0.495-2.783,0.713-7.613,0.163-8.928c-0.548-1.315-1.973-0.546-2.41,0.33
			c-0.437,0.876-0.101,8.099,0.112,8.981C10.349,34.49,11.771,34.355,12.101,32.515z"/>
		<path d="M7.507,33.577c0.495-2.658,0.711-7.27,0.163-8.524c-0.549-1.253-1.972-0.52-2.409,0.316
			c-0.439,0.836-0.103,7.731,0.111,8.573C5.755,35.462,7.178,35.334,7.507,33.577z"/>
		<path d="M24.364,31.673V27.09c0,0-1.845,3.207-1.582,3.817C23.044,31.517,24.364,31.673,24.364,31.673z"/>
		<path d="M20.793,21.566l-0.383-6.534c0,0-1.489,5.025-1.224,5.895C19.45,21.795,20.793,21.566,20.793,21.566z"/>
		<path d="M16.661,21.054l-0.383-6.533c0,0-1.488,5.024-1.224,5.893C15.315,21.284,16.661,21.054,16.661,21.054z"/>
		<path d="M11.93,21.566l-0.38-6.534c0,0-1.491,5.025-1.225,5.895C10.588,21.795,11.93,21.566,11.93,21.566z"/>
		<path d="M7.338,23.04l-0.383-6.533c0,0-1.487,5.024-1.224,5.893C5.995,23.269,7.338,23.04,7.338,23.04z"/>
    </symbol>
    <!--Patita 5-->
    <symbol id="paw-05" viewBox="0 0 82.23 82.23">
		<path d="M56.886,36.511c1.704,0,3.088-1.382,3.088-3.087c0-1.703-2.331-9.37-0.728-14.973c-4.391,4.688-5.444,13.27-5.444,14.973
			C53.802,35.131,55.182,36.511,56.886,36.511z"/>
		<path d="M65.88,36.511c1.704,0,3.086-1.382,3.086-3.087c0-1.703,0.801-9.713-1.943-15.545c0.229,7.089-4.233,11.093-4.233,15.545
			C62.789,35.131,64.171,36.511,65.88,36.511z"/>
		<path d="M73.882,38.341c1.704,0,3.086-1.384,3.086-3.087c0-1.704,1.602-5.253-0.972-11.086c-0.516,7.736-4.63,7.736-5.205,11.086
			C70.508,36.935,72.178,38.341,73.882,38.341z"/>
		<path d="M75.999,40.172c-1.485,0-2.686,1.206-2.686,2.688c0,1.483,1.205,2.688,2.686,2.688c1.479,0,5.089-2.854,6.231-7.205
			C79.601,40.522,77.479,40.172,75.999,40.172z"/>
		<path d="M63.679,39.208c-3.234,0.172-9.923,6.002-8.664,8.035c1.257,2.033,6.688-0.659,8.664-0.659c1.971,0,7.345,1.487,8.26,0
			C72.853,45.096,66.908,39.034,63.679,39.208z"/>
		<path d="M55.859,40.172c0-1.703-1.396-3.294-3.089-3.088c-4.042,0.49-5.862-6.618-5.985-4.917
			c-0.689,9.385,4.283,11.093,5.985,11.093C54.477,43.26,55.859,41.878,55.859,40.172z"/>
		<path d="M25.344,52.861c1.703,0,3.085-1.383,3.085-3.087s-1.055-10.284-5.445-14.973c1.603,5.604-0.729,13.269-0.729,14.973
			C22.255,51.483,23.641,52.861,25.344,52.861z"/>
		<path d="M16.351,52.861c1.705,0,3.088-1.383,3.088-3.087c0-4.452-4.459-8.456-4.232-15.545
			c-2.745,5.833-1.943,13.841-1.943,15.545C13.266,51.483,14.648,52.861,16.351,52.861z"/>
		<path d="M8.349,54.69c1.705,0,3.373-1.407,3.087-3.087c-0.573-3.351-4.69-3.351-5.205-11.085
			C3.658,46.351,5.26,49.897,5.26,51.604C5.26,53.312,6.644,54.69,8.349,54.69z"/>
		<path d="M6.232,56.524c-1.482,0-3.602,0.349-6.232-1.829c1.143,4.35,4.75,7.203,6.232,7.203c1.484,0,2.686-1.207,2.686-2.688
			C8.92,57.725,7.716,56.524,6.232,56.524z"/>
		<path d="M18.553,55.557c-3.23-0.168-9.177,5.891-8.261,7.377c0.917,1.487,6.29,0,8.261,0c1.974,0,7.406,2.692,8.664,0.66
			C28.474,61.561,21.787,55.729,18.553,55.557z"/>
		<path d="M29.462,53.436c-1.696-0.205-3.088,1.383-3.088,3.089c0,1.704,1.382,3.086,3.088,3.086c1.703,0,6.673-1.708,5.987-11.093
			C35.325,46.816,33.506,53.924,29.462,53.436z"/>
    </symbol>
    <!--Patita 6-->
    <symbol id="paw-06" viewBox="0 0 66.118 66.119">
    		<path d="M49.271,21.696c0.155,0.265,0.317,0.579,0.498,0.996l0.707,1.625l-0.014-1.77c-0.003-0.6-0.048-1.5-0.227-2.389
			c-0.125-0.626-0.277-1.313-0.446-2.042c-0.505-2.222-1.006-4.479-0.944-6.201c-0.944,0.721-2.085,1.354-3.495,1.772
			c0.949,0.792,1.608,2.497,2.336,4.409C48.176,19.387,48.683,20.717,49.271,21.696z"/>
		<path d="M53.56,16.327c-0.071,1.362-0.146,2.766-0.053,3.905c0.034,0.425,0.075,0.848,0.121,1.254l0.246,2.285l0.575-2.78
			c0.07-0.383,0.146-0.798,0.224-1.241l0.031-0.156c0.514-2.9,1.118-6.29,2.397-8.08c-1.151-0.014-2.432-0.224-3.759-0.707
			C53.78,12.163,53.676,14.128,53.56,16.327z"/>
		<path d="M57.675,21.031c-0.094,0.315-0.172,0.758-0.235,1.322l-0.235,2.104l0.922-1.906c0.229-0.472,0.473-0.997,0.728-1.574
			c0.99-2.238,2.623-4.781,4.293-5.485c-0.714-0.514-1.419-1.215-2.053-2.151c-0.285,1.016-0.89,2.202-1.588,3.557
			C58.79,18.298,58.044,19.744,57.675,21.031z"/>
		<path d="M44.49,22.953c0.515,0.65,1.001,1.264,1.448,1.767c0.244,0.284,0.513,0.551,0.782,0.789l1.104,0.979L47.3,25.11
			c-0.132-0.343-0.296-0.715-0.497-1.099c-0.395-0.771-1.062-1.733-1.779-2.755c-1.19-1.706-2.322-3.343-2.753-4.761
			c-0.635,1.023-1.221,1.714-1.987,2.181C41.49,19.275,42.795,20.824,44.49,22.953z"/>
		<path d="M59.516,21.272c-1.05,2.378-2.302,4.75-2.683,4.758c-0.397,0.004-0.268-3.775,0.144-5.198
			c1.129-3.904,5.399-8.988,2.691-9.782c-2.91-0.855-3.796,6.353-4.51,10.074c-0.282,1.476-0.979,4.354-1.348,4.42
			c-0.408,0.069-0.855-3.103-1.026-5.251c-0.317-4.007,1.284-10.562-1.673-10.556c-2.96,0.009-0.946,6.344-0.161,10.272
			c0.426,2.131,0.262,5.358-0.352,5.595c-0.598,0.229-1.187-2.275-1.941-3.535c-1.909-3.165-2.854-9.444-5.224-7.89
			c-2.347,1.54,2.541,6.617,4.017,9.497c0.604,1.17,1.243,2.848,0.63,3.316c-0.328,0.248-1.569-0.535-2.683-1.798
			c-2.153-2.436-5.449-7.614-6.962-5.633c-1.141,1.49,2.404,4.779,5.386,7.08c1.011,0.78,1.873,2.304,2.092,2.899
			c0.429,1.17-0.728,13.782,6.641,14.677c7.365,0.894,6.651-16.002,6.957-17.66c0.237-1.291-0.022-2.144,1.175-3.419
			c2.801-2.985,5.413-5.475,4.146-6.765C63.43,14.956,60.978,17.969,59.516,21.272z"/>
		<path d="M51.128,9.292c0,0-0.048-1.437-0.354-1.444c-0.304-0.007-0.133,1.478-0.133,1.478L51.128,9.292z"/>
		<path d="M60.38,9.361c-0.28-0.122-0.676,1.319-0.676,1.319l0.464,0.147C60.168,10.83,60.662,9.479,60.38,9.361z"/>
		<path d="M64.941,15.834l0.37,0.32c0,0,0.987-1.045,0.777-1.266C65.877,14.666,64.941,15.834,64.941,15.834z"/>
		<path d="M43.466,13.556c0,0-0.739-1.229-1.013-1.083c-0.27,0.145,0.608,1.355,0.608,1.355L43.466,13.556z"/>
		<path d="M37.414,17.74c-0.252,0.171,0.739,1.288,0.739,1.288l0.376-0.309C38.531,18.718,37.672,17.57,37.414,17.74z"/>
		<path d="M15.883,34.171c-0.178,0.89-0.225,1.788-0.227,2.388l-0.014,1.771l0.708-1.626c0.179-0.415,0.341-0.73,0.497-0.995
			c0.589-0.976,1.097-2.31,1.588-3.602c0.727-1.913,1.386-3.618,2.336-4.409c-1.411-0.419-2.55-1.052-3.496-1.773
			c0.061,1.722-0.439,3.982-0.944,6.202C16.164,32.86,16.007,33.544,15.883,34.171z"/>
		<path d="M11.447,33.763c0.079,0.442,0.152,0.859,0.224,1.241l0.575,2.78l0.248-2.286c0.044-0.403,0.087-0.825,0.12-1.254
			c0.091-1.14,0.019-2.546-0.051-3.905c-0.117-2.198-0.222-4.168,0.219-5.524c-1.329,0.486-2.608,0.693-3.76,0.707
			c1.282,1.79,1.887,5.179,2.398,8.079L11.447,33.763z"/>
		<path d="M7.266,34.993c0.254,0.579,0.5,1.102,0.729,1.574l0.92,1.906l-0.234-2.105c-0.063-0.563-0.143-1.006-0.236-1.32
			c-0.368-1.289-1.114-2.734-1.831-4.133c-0.699-1.357-1.303-2.543-1.588-3.558c-0.633,0.937-1.339,1.637-2.053,2.151
			C4.643,30.211,6.276,32.755,7.266,34.993z"/>
		<path d="M19.317,38.026c-0.199,0.384-0.365,0.753-0.496,1.1l-0.524,1.378l1.104-0.98c0.269-0.237,0.535-0.505,0.782-0.79
			c0.447-0.501,0.933-1.115,1.449-1.765c1.693-2.131,2.997-3.679,4.202-4.277c-0.763-0.466-1.349-1.158-1.984-2.181
			c-0.433,1.417-1.562,3.055-2.754,4.761C20.381,36.292,19.712,37.255,19.317,38.026z"/>
		<path d="M20.73,39.212c-1.116,1.264-2.357,2.046-2.681,1.8c-0.617-0.473,0.023-2.146,0.627-3.319
			c1.477-2.878,6.365-7.956,4.018-9.496c-2.374-1.556-3.314,4.723-5.223,7.89c-0.757,1.262-1.346,3.764-1.943,3.536
			c-0.615-0.237-0.778-3.466-0.35-5.596c0.785-3.929,2.795-10.264-0.162-10.273s-1.355,6.546-1.672,10.555
			c-0.171,2.149-0.622,5.322-1.028,5.251c-0.37-0.065-1.065-2.939-1.348-4.418C10.255,31.42,9.371,24.21,6.46,25.067
			c-2.709,0.794,1.562,5.877,2.691,9.784c0.411,1.421,0.537,5.203,0.145,5.196c-0.383-0.007-1.636-2.382-2.685-4.759
			c-1.462-3.303-3.914-6.316-5.309-4.896c-1.266,1.292,1.346,3.779,4.147,6.764c1.198,1.275,0.937,2.129,1.175,3.42
			c0.308,1.66-0.409,18.552,6.958,17.66c7.367-0.895,6.21-13.504,6.638-14.677c0.223-0.596,1.083-2.119,2.093-2.899
			c2.978-2.302,6.526-5.591,5.384-7.078C26.18,31.598,22.883,36.776,20.73,39.212z"/>
		<path d="M15.346,21.865c-0.308,0.005-0.353,1.444-0.353,1.444l0.486,0.036C15.479,23.343,15.649,21.858,15.346,21.865z"/>
		<path d="M6.416,24.696c0,0-0.395-1.444-0.674-1.32c-0.283,0.118,0.212,1.469,0.212,1.469L6.416,24.696z"/>
		<path d="M0.029,28.903c-0.209,0.221,0.778,1.266,0.778,1.266l0.37-0.32C1.179,29.849,0.241,28.681,0.029,28.903z"/>
		<path d="M23.668,26.49c-0.271-0.145-1.014,1.083-1.014,1.083l0.404,0.271C23.058,27.845,23.938,26.635,23.668,26.49z"/>
		<path d="M27.588,32.733l0.377,0.309c0,0,0.993-1.119,0.738-1.288C28.449,31.584,27.588,32.733,27.588,32.733z"/>
    </symbol>
    <!--Patita 7-->
    <symbol id="paw-07" viewBox="0 0 512 512">
        <path style="fill:#E37500;" d="M428.061,417.029c0,19.89-6.21,35.14-18.44,45.31c-25.75,21.41-70.309,13.14-109.629,5.84
            c-16.83-3.13-32.72-6.08-43.99-6.08c-13.06,0-30,3.11-47.94,6.4c-20.53,3.77-41.43,7.6-60.24,7.6c-17.69,0-33.54-3.38-45.55-13.39
            c-12.16-10.13-18.33-25.5-18.33-45.68c0-41.53,18.49-88.649,49.45-126.029c34.45-41.6,77.989-64.5,122.609-64.5
            s88.159,22.9,122.609,64.5C409.571,328.38,428.061,375.499,428.061,417.029z"/>
        <path style="fill:#E37500;" d="M400.091,128.271c0,23.64-6.38,46.05-17.96,63.13c-12.6,18.58-30.65,29.24-49.52,29.24
            c-18.86,0-36.91-10.66-49.51-29.24c-11.58-17.08-17.96-39.49-17.96-63.13s6.38-46.05,17.96-63.13
            c12.6-18.58,30.65-29.24,49.51-29.24c18.87,0,36.92,10.66,49.52,29.24C393.711,82.221,400.091,104.631,400.091,128.271z"/>
        <path style="fill:#E37500;" d="M179.389,220.636c18.866,0,36.914-10.658,49.518-29.241c11.578-17.071,17.955-39.489,17.955-63.124
            s-6.377-46.055-17.955-63.126c-12.604-18.583-30.652-29.24-49.518-29.24s-36.915,10.658-49.518,29.24
            c-11.578,17.071-17.955,39.49-17.955,63.126s6.377,46.055,17.955,63.126C142.475,209.979,160.523,220.636,179.389,220.636z"/>
        <path style="fill:#E37500;" d="M512,231.5c0,9.66-1.69,19.62-5.06,29.26c-7.27,20.81-21.25,37.34-38.36,45.34
            c-7.07,3.31-14.45,4.98-21.68,4.98c-5.45,0-10.82-0.95-15.9-2.86c-14.7-5.52-25.59-18.08-30.67-35.36
            c-4.6-15.64-3.86-33.62,2.09-50.62c7.27-20.82,21.25-37.34,38.35-45.35c12.42-5.81,25.76-6.56,37.59-2.12
            c14.69,5.52,25.58,18.08,30.66,35.36C511.01,216.9,512,224.12,512,231.5z"/>
        <path style="fill:#E37500;" d="M111.672,272.86c4.597-15.637,3.856-33.615-2.085-50.624c-7.271-20.813-21.252-37.341-38.357-45.345
            c-12.413-5.809-25.761-6.561-37.585-2.121c-14.694,5.521-25.585,18.08-30.666,35.363c-4.597,15.637-3.856,33.615,2.085,50.623l0,0
            c7.272,20.814,21.252,37.341,38.357,45.345c7.076,3.311,14.455,4.979,21.682,4.979c5.452,0,10.818-0.95,15.902-2.859
            C95.702,302.703,106.591,290.144,111.672,272.86z"/>
        <path style="fill:#974C00;" d="M283.102,191.401c-11.58-17.08-17.96-39.49-17.96-63.13s6.38-46.05,17.96-63.13
            c12.6-18.58,30.65-29.24,49.51-29.24c18.87,0,36.92,10.66,49.52,29.24c11.58,17.08,17.96,39.49,17.96,63.13
            s-6.38,46.05-17.96,63.13c-12.6,18.58-30.65,29.24-49.52,29.24C313.752,220.64,295.702,209.98,283.102,191.401z"/>
        <path style="fill:#974C00;" d="M378.611,291c30.96,37.38,49.45,84.499,49.45,126.029c0,19.89-6.21,35.14-18.44,45.31
            c-25.75,21.41-70.309,13.14-109.629,5.84c-16.83-3.13-32.72-6.08-43.99-6.08V226.5C300.622,226.5,344.162,249.4,378.611,291z"/>
        <path style="fill:#974C00;" d="M512,231.5c0,9.66-1.69,19.62-5.06,29.26c-7.27,20.81-21.25,37.34-38.36,45.34
            c-7.07,3.31-14.45,4.98-21.68,4.98c-5.45,0-10.82-0.95-15.9-2.86c-14.7-5.52-25.59-18.08-30.67-35.36
            c-4.6-15.64-3.86-33.62,2.09-50.62c7.27-20.82,21.25-37.34,38.35-45.35c12.42-5.81,25.76-6.56,37.59-2.12
            c14.69,5.52,25.58,18.08,30.66,35.36C511.01,216.9,512,224.12,512,231.5z"/>
    </symbol>
	<!--Facebook Grande-->
	<symbol id="icon-fb" viewBox="0 0 408.788 408.788" >
		<path style="fill:#475993;" d="M353.701,0H55.087C24.665,0,0.002,24.662,0.002,55.085v298.616c0,30.423,24.662,55.085,55.085,55.085
		h147.275l0.251-146.078h-37.951c-4.932,0-8.935-3.988-8.954-8.92l-0.182-47.087c-0.019-4.959,3.996-8.989,8.955-8.989h37.882
		v-45.498c0-52.8,32.247-81.55,79.348-81.55h38.65c4.945,0,8.955,4.009,8.955,8.955v39.704c0,4.944-4.007,8.952-8.95,8.955
		l-23.719,0.011c-25.615,0-30.575,12.172-30.575,30.035v39.389h56.285c5.363,0,9.524,4.683,8.892,10.009l-5.581,47.087
		c-0.534,4.506-4.355,7.901-8.892,7.901h-50.453l-0.251,146.078h87.631c30.422,0,55.084-24.662,55.084-55.084V55.085
		C408.786,24.662,384.124,0,353.701,0z"/>
	</symbol>
	<!--Medalla de plata-->
	<symbol id="medalla" viewBox="0 0 512 512">
		<path d="m512 256c0 141.386719-114.613281 256-256 256s-256-114.613281-256-256 114.613281-256 256-256 256 114.613281 256 256zm0 0" fill="#555a66"/>
    <path d="m512 256c0-3.832031-.101562-7.640625-.265625-11.429688l-93.417969-93.417968-246.433594-10.128906 7.355469 274.476562 95.796875 95.796875c132.496094-9.742187 236.964844-120.316406 236.964844-255.296875zm0 0" fill="#333940"/>
    <path d="m171.117188 72.152344h169.765624l77.433594 79h-324.632812zm0 0" fill="#f92814"/>
    <path d="m340.882812 72.152344h-85.074218v79h162.507812zm0 0" fill="#db0404"/>
    <path d="m304.910156 364h-99.933594l-111.292968-212.847656 77.433594-79zm0 0" fill="#ff6c52"/>
    <path d="m207.089844 364h99.933594l111.292968-212.847656-77.433594-79zm0 0" fill="#db0404"/>
    <path d="m366 345.5c0 58.816406-47.683594 106.5-106.5 106.5s-106.5-47.683594-106.5-106.5 47.683594-106.5 106.5-106.5 106.5 47.683594 106.5 106.5zm0 0" fill="#fff"/>
    <path d="m259.5 239c-1.234375 0-2.464844.027344-3.691406.070312v212.859376c1.226562.042968 2.457031.070312 3.691406.070312 58.816406 0 106.5-47.679688 106.5-106.5 0-58.816406-47.683594-106.5-106.5-106.5zm0 0" fill="#dce1eb"/>
    <path d="m329.5 345.5c0 38.660156-31.339844 70-70 70s-70-31.339844-70-70 31.339844-70 70-70 70 31.339844 70 70zm0 0" fill="#dce1eb"/>
    <path d="m259.5 275.5c-1.238281 0-2.46875.035156-3.691406.097656v139.804688c1.222656.0625 2.453125.097656 3.691406.097656 38.660156 0 70-31.339844 70-70s-31.339844-70-70-70zm0 0" fill="#bec3d2"/>
	</symbol>
</svg>
